<svg width="348" height="73" viewBox="0 0 348 73" fill="none" xmlns="http://www.w3.org/2000/svg">
<path fill-rule="evenodd" clip-rule="evenodd" d="M35.8032 35.4326L50.8453 8.76416C53.6032 12.5106 55.5215 16.8148 52.6261 21.3371L39.7895 43.9738C39.0191 45.3324 38.5461 47.1301 38.4729 48.4596C34.8918 43.9068 33.2899 39.2659 35.8032 35.4326Z" fill="white"/>
<path fill-rule="evenodd" clip-rule="evenodd" d="M41.2721 43.8643L54.5335 20.5947C55.1325 19.5437 55.638 18.3084 55.6956 17.3198C58.6188 20.9836 60.7837 25.4118 57.971 30.1401L46.0208 51.1147C45.2476 52.4719 45.3642 56.1486 46.9925 57.3019C39.1871 55.0956 38.5759 48.5947 41.2721 43.8643Z" fill="white"/>
<path fill-rule="evenodd" clip-rule="evenodd" d="M46.8273 12.7581L42.5509 20.3445L25.7219 20.4137C24.6411 20.4367 23.3537 20.8046 22.4111 21.3101C24.9 15.7578 28.1301 12.3556 32.2737 12.689L46.8273 12.7581Z" fill="white"/>
<path fill-rule="evenodd" clip-rule="evenodd" d="M47.809 11.1055H31.1968C29.9324 11.1048 28.7439 11.2993 28.0107 11.9505L30.8465 6.80272C32.302 4.56323 35.2448 3 37.5013 3H45.909C48.2352 3.27036 50.9036 5.66366 47.809 11.1055Z" fill="white"/>
<path fill-rule="evenodd" clip-rule="evenodd" d="M49.7212 3.34463L54.1839 11.1547L64.8128 11.0375L68.4536 11.8011L65.3413 6.22242C64.4015 4.57787 61.6613 3.48219 58.3532 3.16846L49.7212 3.34463Z" fill="white"/>
<path fill-rule="evenodd" clip-rule="evenodd" d="M55.0649 12.5063L59.5276 20.3163L70.1565 20.1991L73.7973 20.9628L70.6851 15.384C69.7452 13.7395 67.005 12.6438 63.6969 12.3301L55.0649 12.5063Z" fill="white"/>
<path fill-rule="evenodd" clip-rule="evenodd" d="M65.6362 21.8793L73.6557 36.1151C74.2635 37.1938 74.4756 37.2541 75.0881 36.6483C80.7441 31.7696 77.7057 21.8203 69.8929 21.8203L65.6362 21.8793Z" fill="white"/>
<path fill-rule="evenodd" clip-rule="evenodd" d="M60.3412 21.8993L64.0538 21.8193L72.3335 36.5627C72.9304 37.7112 72.6811 38.6368 69.7159 38.9133L64.6094 38.8062L59.8872 30.0455C61.218 26.3552 61.1204 24.2811 60.3412 21.8993Z" fill="white"/>
<path fill-rule="evenodd" clip-rule="evenodd" d="M49.4775 47.9925L53.7539 40.406L70.5829 40.3369C71.6637 40.3139 72.9511 39.9459 73.8937 39.4404C71.4048 44.9927 68.1747 48.395 64.0311 48.0616L49.4775 47.9925Z" fill="white"/>
<path fill-rule="evenodd" clip-rule="evenodd" d="M48.4956 49.6448H65.1077C66.3721 49.6455 67.5606 49.451 68.2938 48.7998L65.458 53.9476C64.0025 56.187 61.0597 57.7503 58.8033 57.7503H50.3956C48.0687 57.4799 45.4009 55.0866 48.4956 49.6448Z" fill="white"/>
<path fill-rule="evenodd" clip-rule="evenodd" d="M24.1301 23.5265L33.1849 39.4726C32.6029 36.628 34.8464 33.4623 37.0486 30.4754L31.7972 21.8596H25.2421C24.4398 21.7756 23.8164 22.9858 24.1301 23.5265Z" fill="white"/>
<path fill-rule="evenodd" clip-rule="evenodd" d="M22.6821 24.4198C28.7243 34.8665 35.0803 45.6261 41.1232 56.0721C41.6558 56.7856 42.5177 57.4768 43.2739 57.7105C40.9172 57.7105 38.5605 57.7105 36.2044 57.7105C33.9927 57.4863 31.7065 55.7197 29.883 52.5858L19.0976 34.0472C16.5613 29.6875 18.8584 25.8482 21.5553 23.9367C22.1929 23.5295 22.464 24.0424 22.6821 24.4198Z" fill="white"/>
<path d="M97.68 20.2C98.4533 18.6 99.9067 17.8 102.04 17.8C104.2 17.8 105.773 18.4267 106.76 19.68C107.773 20.9067 108.28 22.9467 108.28 25.8V40.08L118 18.64H122.76L110.32 45H100.96L99.76 25.8C99.68 24.3867 99.44 23.2 99.04 22.24C98.6667 21.28 98.2133 20.6 97.68 20.2ZM136.747 38.24C137.414 38.6933 137.747 39.4267 137.747 40.44C137.747 41.4267 137.494 42.24 136.987 42.88C136.481 43.52 135.814 44.0533 134.987 44.48C133.281 45.36 131.507 45.8 129.667 45.8C127.827 45.8 126.361 45.6 125.267 45.2C124.201 44.8 123.307 44.2267 122.587 43.48C121.174 42.0667 120.467 40.0667 120.467 37.48C120.467 33.4533 121.561 30.2133 123.747 27.76C126.094 25.12 129.307 23.8 133.387 23.8C135.921 23.8 137.814 24.3333 139.067 25.4C140.001 26.2 140.467 27.2533 140.467 28.56C140.467 33.2533 136.414 35.6 128.307 35.6C128.201 36.2933 128.147 36.9333 128.147 37.52C128.147 38.7467 128.414 39.6 128.947 40.08C129.507 40.5333 130.294 40.76 131.307 40.76C132.321 40.76 133.361 40.5333 134.427 40.08C135.521 39.6 136.294 38.9867 136.747 38.24ZM128.587 33.88C130.481 33.88 131.974 33.2933 133.067 32.12C134.161 31 134.707 29.5467 134.707 27.76C134.707 27.1467 134.587 26.68 134.347 26.36C134.134 26.0133 133.801 25.84 133.347 25.84C132.894 25.84 132.467 25.9333 132.067 26.12C131.694 26.28 131.307 26.6533 130.907 27.24C129.921 28.5733 129.147 30.7867 128.587 33.88ZM154.356 33.76C155.316 32.0533 155.796 30.3333 155.796 28.6C155.796 27.4533 155.383 26.88 154.556 26.88C153.916 26.88 153.263 27.4267 152.596 28.52C151.903 29.6133 151.45 30.8667 151.236 32.28L149.156 45L140.876 45.8L144.956 24.6L151.556 23.8L150.836 27.84C152.143 25.1467 154.263 23.8 157.196 23.8C158.743 23.8 159.93 24.2 160.756 25C161.61 25.8 162.036 27.0267 162.036 28.68C162.036 30.3067 161.49 31.64 160.396 32.68C159.33 33.72 157.876 34.24 156.036 34.24C155.236 34.24 154.676 34.08 154.356 33.76ZM172.296 42.8C171.469 44.8 169.736 45.8 167.096 45.8C165.736 45.8 164.629 45.3333 163.776 44.4C163.056 43.5733 162.696 42.7467 162.696 41.92C162.696 39.76 163.189 36.5733 164.176 32.36L165.656 24.6L173.776 23.8L171.336 36.44C170.882 38.4133 170.656 39.7467 170.656 40.44C170.656 41.96 171.202 42.7467 172.296 42.8ZM166.376 19.04C166.376 18 166.802 17.2 167.656 16.64C168.536 16.08 169.602 15.8 170.856 15.8C172.109 15.8 173.109 16.08 173.856 16.64C174.629 17.2 175.016 18 175.016 19.04C175.016 20.08 174.589 20.8667 173.736 21.4C172.909 21.9333 171.869 22.2 170.616 22.2C169.362 22.2 168.336 21.9333 167.536 21.4C166.762 20.8667 166.376 20.08 166.376 19.04ZM191.303 21.8C191.677 21.16 191.863 20.4933 191.863 19.8C191.863 18.5733 191.49 17.96 190.743 17.96C189.597 17.96 188.783 19.1333 188.303 21.48L187.703 24.6H191.343L191.103 26.4H187.343L183.743 45L175.663 45.8L179.503 26.4H176.663L177.023 24.6H179.823L180.663 21.44C181.143 19.4933 182.41 18.0667 184.463 17.16C185.957 16.52 187.957 16.2 190.463 16.2C192.97 16.2 194.783 16.52 195.903 17.16C197.023 17.8 197.583 18.5467 197.583 19.4C197.583 20.2533 197.25 20.9467 196.583 21.48C195.917 22.0133 195.21 22.28 194.463 22.28C192.997 22.28 191.943 22.12 191.303 21.8ZM204.014 42.8C203.188 44.8 201.454 45.8 198.814 45.8C197.454 45.8 196.348 45.3333 195.494 44.4C194.774 43.5733 194.414 42.7467 194.414 41.92C194.414 39.76 194.908 36.5733 195.894 32.36L197.374 24.6L205.494 23.8L203.054 36.44C202.601 38.4133 202.374 39.7467 202.374 40.44C202.374 41.96 202.921 42.7467 204.014 42.8ZM198.094 19.04C198.094 18 198.521 17.2 199.374 16.64C200.254 16.08 201.321 15.8 202.574 15.8C203.828 15.8 204.828 16.08 205.574 16.64C206.348 17.2 206.734 18 206.734 19.04C206.734 20.08 206.308 20.8667 205.454 21.4C204.628 21.9333 203.588 22.2 202.334 22.2C201.081 22.2 200.054 21.9333 199.254 21.4C198.481 20.8667 198.094 20.08 198.094 19.04ZM223.622 38.24C224.289 38.6933 224.622 39.4267 224.622 40.44C224.622 41.4267 224.369 42.24 223.862 42.88C223.356 43.52 222.689 44.0533 221.862 44.48C220.156 45.36 218.382 45.8 216.542 45.8C214.702 45.8 213.236 45.6 212.142 45.2C211.076 44.8 210.182 44.2267 209.462 43.48C208.049 42.0667 207.342 40.0667 207.342 37.48C207.342 33.4533 208.436 30.2133 210.622 27.76C212.969 25.12 216.182 23.8 220.262 23.8C222.796 23.8 224.689 24.3333 225.942 25.4C226.876 26.2 227.342 27.2533 227.342 28.56C227.342 33.2533 223.289 35.6 215.182 35.6C215.076 36.2933 215.022 36.9333 215.022 37.52C215.022 38.7467 215.289 39.6 215.822 40.08C216.382 40.5333 217.169 40.76 218.182 40.76C219.196 40.76 220.236 40.5333 221.302 40.08C222.396 39.6 223.169 38.9867 223.622 38.24ZM215.462 33.88C217.356 33.88 218.849 33.2933 219.942 32.12C221.036 31 221.582 29.5467 221.582 27.76C221.582 27.1467 221.462 26.68 221.222 26.36C221.009 26.0133 220.676 25.84 220.222 25.84C219.769 25.84 219.342 25.9333 218.942 26.12C218.569 26.28 218.182 26.6533 217.782 27.24C216.796 28.5733 216.022 30.7867 215.462 33.88ZM240.671 30.96C241.045 29.9733 241.231 29.0533 241.231 28.2C241.231 26.6267 240.591 25.84 239.311 25.84C238.645 25.84 238.031 26.1467 237.471 26.76C236.938 27.3467 236.671 28.0133 236.671 28.76C236.671 29.2933 236.885 29.7733 237.311 30.2C237.925 30.7867 239.018 31.56 240.591 32.52C242.165 33.48 243.245 34.36 243.831 35.16C244.445 35.9333 244.751 36.8667 244.751 37.96C244.751 39.0267 244.485 40.0533 243.951 41.04C243.445 42.0267 242.725 42.8667 241.791 43.56C239.791 45.0533 237.191 45.8 233.991 45.8C232.258 45.8 230.725 45.3467 229.391 44.44C228.058 43.56 227.391 42.6 227.391 41.56C227.391 40.52 227.765 39.6933 228.511 39.08C229.285 38.4667 230.231 38.16 231.351 38.16C232.471 38.16 233.378 38.3733 234.071 38.8C233.725 39.68 233.551 40.4133 233.551 41C233.551 42.76 234.298 43.64 235.791 43.64C236.431 43.64 236.965 43.44 237.391 43.04C237.818 42.64 238.031 42.0933 238.031 41.4C238.031 40.04 236.885 38.64 234.591 37.2C232.725 35.9733 231.578 35.12 231.151 34.64C230.431 33.7867 230.071 32.8267 230.071 31.76C230.071 30.6933 230.325 29.6533 230.831 28.64C231.338 27.6267 232.058 26.76 232.991 26.04C234.938 24.5467 237.605 23.8 240.991 23.8C242.725 23.8 244.098 24.1467 245.111 24.84C246.151 25.5333 246.671 26.4667 246.671 27.64C246.671 28.8133 246.311 29.7333 245.591 30.4C244.898 31.0667 243.911 31.4 242.631 31.4C241.751 31.4 241.098 31.2533 240.671 30.96Z" fill="white"/>
<path d="M274.24 45.8C270.827 45.8 268.96 43.3733 268.64 38.52H261.76C261.227 39.7467 260.773 40.8933 260.4 41.96L259.36 45H253.76L266.36 18.6H274.96L276.64 38.04C276.907 40.84 277.573 42.6533 278.64 43.48C277.867 45.0267 276.4 45.8 274.24 45.8ZM263 35.6H268.52L268.04 25.32V24.24L265.2 30.52L263 35.6ZM280.537 45L285.617 18.6H294.417L289.257 45H280.537Z" fill="#0FB666"/>
</svg>
