<svg width="349" height="74" viewBox="0 0 349 74" fill="none" xmlns="http://www.w3.org/2000/svg">
<path fill-rule="evenodd" clip-rule="evenodd" d="M36.7226 36.1602L51.7648 9.4917C54.5226 13.2382 56.4409 17.5423 53.5455 22.0647L40.709 44.7014C39.9385 46.06 39.4655 47.8577 39.3924 49.1871C35.8112 44.6343 34.2094 39.9934 36.7226 36.1602Z" fill="#111111"/>
<path fill-rule="evenodd" clip-rule="evenodd" d="M42.1916 44.5918L55.453 21.3222C56.052 20.2713 56.5575 19.036 56.615 18.0474C59.5382 21.7112 61.7032 26.1393 58.8904 30.8676L46.9402 51.8422C46.1671 53.1995 46.2836 56.8761 47.9119 58.0294C40.1066 55.8231 39.4954 49.3222 42.1916 44.5918Z" fill="#111111"/>
<path fill-rule="evenodd" clip-rule="evenodd" d="M47.7467 13.4856L43.4703 21.0721L26.6413 21.1412C25.5606 21.1642 24.2731 21.5322 23.3306 22.0377C25.8194 16.4854 29.0495 13.0831 33.1931 13.4165L47.7467 13.4856Z" fill="#111111"/>
<path fill-rule="evenodd" clip-rule="evenodd" d="M48.7284 11.833H32.1163C30.8519 11.8324 29.6633 12.0268 28.9302 12.678L31.766 7.53026C33.2214 5.29077 36.1643 3.72754 38.4207 3.72754H46.8284C49.1546 3.9979 51.823 6.3912 48.7284 11.833Z" fill="#111111"/>
<path fill-rule="evenodd" clip-rule="evenodd" d="M50.6406 4.07217L55.1033 11.8822L65.7322 11.765L69.373 12.5287L66.2608 6.94996C65.3209 5.30541 62.5807 4.20973 59.2726 3.896L50.6406 4.07217Z" fill="#111111"/>
<path fill-rule="evenodd" clip-rule="evenodd" d="M55.9844 13.2338L60.4471 21.0439L71.076 20.9266L74.7168 21.6903L71.6045 16.1116C70.6647 14.467 67.9244 13.3713 64.6164 13.0576L55.9844 13.2338Z" fill="#111111"/>
<path fill-rule="evenodd" clip-rule="evenodd" d="M66.5557 22.6068L74.5751 36.8426C75.1829 37.9213 75.395 37.9817 76.0076 37.3759C81.6635 32.4971 78.6252 22.5479 70.8124 22.5479L66.5557 22.6068Z" fill="#111111"/>
<path fill-rule="evenodd" clip-rule="evenodd" d="M61.2606 22.6268L64.9732 22.5469L73.2529 37.2902C73.8499 38.4387 73.6005 39.3643 70.6353 39.6408L65.5289 39.5337L60.8066 30.773C62.1375 27.0828 62.0399 25.0086 61.2606 22.6268Z" fill="#111111"/>
<path fill-rule="evenodd" clip-rule="evenodd" d="M50.397 48.72L54.6733 41.1336L71.5023 41.0644C72.5831 41.0414 73.8706 40.6735 74.8131 40.168C72.3243 45.7203 69.0941 49.1225 64.9506 48.7891L50.397 48.72Z" fill="#111111"/>
<path fill-rule="evenodd" clip-rule="evenodd" d="M49.415 50.3723H66.0271C67.2916 50.373 68.4801 50.1785 69.2132 49.5273L66.3775 54.6751C64.922 56.9146 61.9791 58.4778 59.7227 58.4778H51.315C48.9881 58.2075 46.3204 55.8142 49.415 50.3723Z" fill="#111111"/>
<path fill-rule="evenodd" clip-rule="evenodd" d="M25.0495 24.2541L34.1044 40.2001C33.5223 37.3556 35.7659 34.1898 37.9681 31.2029L32.7166 22.5872H26.1615C25.3592 22.5031 24.7358 23.7133 25.0495 24.2541Z" fill="#111111"/>
<path fill-rule="evenodd" clip-rule="evenodd" d="M23.6016 25.1474C29.6438 35.594 35.9997 46.3537 42.0426 56.7996C42.5752 57.5131 43.4371 58.2043 44.1933 58.4381C41.8366 58.4381 39.4799 58.4381 37.1239 58.4381C34.9122 58.2138 32.6259 56.4473 30.8025 53.3134L20.017 34.7748C17.4808 30.4151 19.7779 26.5758 22.4747 24.6642C23.1123 24.257 23.3834 24.7699 23.6016 25.1474Z" fill="#111111"/>
<path d="M98.5994 20.9275C99.3728 19.3275 100.826 18.5275 102.959 18.5275C105.119 18.5275 106.693 19.1542 107.679 20.4075C108.693 21.6342 109.199 23.6742 109.199 26.5275V40.8075L118.919 19.3675H123.679L111.239 45.7275H101.879L100.679 26.5275C100.599 25.1142 100.359 23.9275 99.9594 22.9675C99.5861 22.0075 99.1328 21.3275 98.5994 20.9275ZM137.667 38.9675C138.333 39.4209 138.667 40.1542 138.667 41.1675C138.667 42.1542 138.413 42.9675 137.907 43.6075C137.4 44.2475 136.733 44.7809 135.907 45.2075C134.2 46.0875 132.427 46.5275 130.587 46.5275C128.747 46.5275 127.28 46.3275 126.187 45.9275C125.12 45.5275 124.227 44.9542 123.507 44.2075C122.093 42.7942 121.387 40.7942 121.387 38.2075C121.387 34.1809 122.48 30.9409 124.667 28.4875C127.013 25.8475 130.227 24.5275 134.307 24.5275C136.84 24.5275 138.733 25.0609 139.987 26.1275C140.92 26.9275 141.387 27.9809 141.387 29.2875C141.387 33.9809 137.333 36.3275 129.227 36.3275C129.12 37.0209 129.067 37.6609 129.067 38.2475C129.067 39.4742 129.333 40.3275 129.867 40.8075C130.427 41.2609 131.213 41.4875 132.227 41.4875C133.24 41.4875 134.28 41.2609 135.347 40.8075C136.44 40.3275 137.213 39.7142 137.667 38.9675ZM129.507 34.6075C131.4 34.6075 132.893 34.0209 133.987 32.8475C135.08 31.7275 135.627 30.2742 135.627 28.4875C135.627 27.8742 135.507 27.4075 135.267 27.0875C135.053 26.7409 134.72 26.5675 134.267 26.5675C133.813 26.5675 133.387 26.6609 132.987 26.8475C132.613 27.0075 132.227 27.3809 131.827 27.9675C130.84 29.3009 130.067 31.5142 129.507 34.6075ZM155.276 34.4875C156.236 32.7809 156.716 31.0609 156.716 29.3275C156.716 28.1809 156.302 27.6075 155.476 27.6075C154.836 27.6075 154.182 28.1542 153.516 29.2475C152.822 30.3409 152.369 31.5942 152.156 33.0075L150.076 45.7275L141.796 46.5275L145.876 25.3275L152.476 24.5275L151.756 28.5675C153.062 25.8742 155.182 24.5275 158.116 24.5275C159.662 24.5275 160.849 24.9275 161.676 25.7275C162.529 26.5275 162.956 27.7542 162.956 29.4075C162.956 31.0342 162.409 32.3675 161.316 33.4075C160.249 34.4475 158.796 34.9675 156.956 34.9675C156.156 34.9675 155.596 34.8075 155.276 34.4875ZM173.215 43.5275C172.388 45.5275 170.655 46.5275 168.015 46.5275C166.655 46.5275 165.548 46.0609 164.695 45.1275C163.975 44.3009 163.615 43.4742 163.615 42.6475C163.615 40.4875 164.108 37.3009 165.095 33.0875L166.575 25.3275L174.695 24.5275L172.255 37.1675C171.802 39.1409 171.575 40.4742 171.575 41.1675C171.575 42.6875 172.122 43.4742 173.215 43.5275ZM167.295 19.7675C167.295 18.7275 167.722 17.9275 168.575 17.3675C169.455 16.8075 170.522 16.5275 171.775 16.5275C173.028 16.5275 174.028 16.8075 174.775 17.3675C175.548 17.9275 175.935 18.7275 175.935 19.7675C175.935 20.8075 175.508 21.5942 174.655 22.1275C173.828 22.6609 172.788 22.9275 171.535 22.9275C170.282 22.9275 169.255 22.6609 168.455 22.1275C167.682 21.5942 167.295 20.8075 167.295 19.7675ZM192.223 22.5275C192.596 21.8875 192.783 21.2209 192.783 20.5275C192.783 19.3009 192.41 18.6875 191.663 18.6875C190.516 18.6875 189.703 19.8609 189.223 22.2075L188.623 25.3275H192.263L192.023 27.1275H188.263L184.663 45.7275L176.583 46.5275L180.423 27.1275H177.583L177.943 25.3275H180.743L181.583 22.1675C182.063 20.2209 183.33 18.7942 185.383 17.8875C186.876 17.2475 188.876 16.9275 191.383 16.9275C193.89 16.9275 195.703 17.2475 196.823 17.8875C197.943 18.5275 198.503 19.2742 198.503 20.1275C198.503 20.9809 198.17 21.6742 197.503 22.2075C196.836 22.7409 196.13 23.0075 195.383 23.0075C193.916 23.0075 192.863 22.8475 192.223 22.5275ZM204.934 43.5275C204.107 45.5275 202.374 46.5275 199.734 46.5275C198.374 46.5275 197.267 46.0609 196.414 45.1275C195.694 44.3009 195.334 43.4742 195.334 42.6475C195.334 40.4875 195.827 37.3009 196.814 33.0875L198.294 25.3275L206.414 24.5275L203.974 37.1675C203.52 39.1409 203.294 40.4742 203.294 41.1675C203.294 42.6875 203.84 43.4742 204.934 43.5275ZM199.014 19.7675C199.014 18.7275 199.44 17.9275 200.294 17.3675C201.174 16.8075 202.24 16.5275 203.494 16.5275C204.747 16.5275 205.747 16.8075 206.494 17.3675C207.267 17.9275 207.654 18.7275 207.654 19.7675C207.654 20.8075 207.227 21.5942 206.374 22.1275C205.547 22.6609 204.507 22.9275 203.254 22.9275C202 22.9275 200.974 22.6609 200.174 22.1275C199.4 21.5942 199.014 20.8075 199.014 19.7675ZM224.542 38.9675C225.208 39.4209 225.542 40.1542 225.542 41.1675C225.542 42.1542 225.288 42.9675 224.782 43.6075C224.275 44.2475 223.608 44.7809 222.782 45.2075C221.075 46.0875 219.302 46.5275 217.462 46.5275C215.622 46.5275 214.155 46.3275 213.062 45.9275C211.995 45.5275 211.102 44.9542 210.382 44.2075C208.968 42.7942 208.262 40.7942 208.262 38.2075C208.262 34.1809 209.355 30.9409 211.542 28.4875C213.888 25.8475 217.102 24.5275 221.182 24.5275C223.715 24.5275 225.608 25.0609 226.862 26.1275C227.795 26.9275 228.262 27.9809 228.262 29.2875C228.262 33.9809 224.208 36.3275 216.102 36.3275C215.995 37.0209 215.942 37.6609 215.942 38.2475C215.942 39.4742 216.208 40.3275 216.742 40.8075C217.302 41.2609 218.088 41.4875 219.102 41.4875C220.115 41.4875 221.155 41.2609 222.222 40.8075C223.315 40.3275 224.088 39.7142 224.542 38.9675ZM216.382 34.6075C218.275 34.6075 219.768 34.0209 220.862 32.8475C221.955 31.7275 222.502 30.2742 222.502 28.4875C222.502 27.8742 222.382 27.4075 222.142 27.0875C221.928 26.7409 221.595 26.5675 221.142 26.5675C220.688 26.5675 220.262 26.6609 219.862 26.8475C219.488 27.0075 219.102 27.3809 218.702 27.9675C217.715 29.3009 216.942 31.5142 216.382 34.6075ZM241.591 31.6875C241.964 30.7009 242.151 29.7809 242.151 28.9275C242.151 27.3542 241.511 26.5675 240.231 26.5675C239.564 26.5675 238.951 26.8742 238.391 27.4875C237.857 28.0742 237.591 28.7409 237.591 29.4875C237.591 30.0209 237.804 30.5009 238.231 30.9275C238.844 31.5142 239.937 32.2875 241.511 33.2475C243.084 34.2075 244.164 35.0875 244.751 35.8875C245.364 36.6609 245.671 37.5942 245.671 38.6875C245.671 39.7542 245.404 40.7809 244.871 41.7675C244.364 42.7542 243.644 43.5942 242.711 44.2875C240.711 45.7809 238.111 46.5275 234.911 46.5275C233.177 46.5275 231.644 46.0742 230.311 45.1675C228.977 44.2875 228.311 43.3275 228.311 42.2875C228.311 41.2475 228.684 40.4209 229.431 39.8075C230.204 39.1942 231.151 38.8875 232.271 38.8875C233.391 38.8875 234.297 39.1009 234.991 39.5275C234.644 40.4075 234.471 41.1409 234.471 41.7275C234.471 43.4875 235.217 44.3675 236.711 44.3675C237.351 44.3675 237.884 44.1675 238.311 43.7675C238.737 43.3675 238.951 42.8209 238.951 42.1275C238.951 40.7675 237.804 39.3675 235.511 37.9275C233.644 36.7009 232.497 35.8475 232.071 35.3675C231.351 34.5142 230.991 33.5542 230.991 32.4875C230.991 31.4209 231.244 30.3809 231.751 29.3675C232.257 28.3542 232.977 27.4875 233.911 26.7675C235.857 25.2742 238.524 24.5275 241.911 24.5275C243.644 24.5275 245.017 24.8742 246.031 25.5675C247.071 26.2609 247.591 27.1942 247.591 28.3675C247.591 29.5409 247.231 30.4609 246.511 31.1275C245.817 31.7942 244.831 32.1275 243.551 32.1275C242.671 32.1275 242.017 31.9809 241.591 31.6875Z" fill="#1E1E1E"/>
<path d="M222.38 72.31C222.027 71.9113 221.767 71.3977 221.598 70.769C221.445 70.1403 221.368 69.3123 221.368 68.285C221.368 67.2577 221.544 66.2763 221.897 65.341C222.25 64.4057 222.748 63.6007 223.392 62.926C224.711 61.5153 226.459 60.81 228.636 60.81C229.418 60.81 230.093 60.9403 230.66 61.201L234.593 60.81L232.891 69.78C232.845 69.964 232.822 70.2247 232.822 70.562C232.822 70.8993 232.922 71.1753 233.121 71.39C233.336 71.6047 233.596 71.7273 233.903 71.758C233.75 72.2793 233.389 72.6933 232.822 73C232.27 73.3067 231.68 73.46 231.051 73.46C230.422 73.46 229.893 73.3373 229.464 73.092C229.05 72.862 228.782 72.5477 228.659 72.149C228.414 72.5323 228.03 72.8467 227.509 73.092C226.988 73.3373 226.374 73.46 225.669 73.46C224.979 73.46 224.35 73.368 223.783 73.184C223.216 73 222.748 72.7087 222.38 72.31ZM227.233 62.972C227.064 63.248 226.903 63.6237 226.75 64.099C226.597 64.559 226.39 65.4177 226.129 66.675C225.884 67.917 225.761 68.9827 225.761 69.872C225.761 70.7613 225.83 71.3363 225.968 71.597C226.106 71.8577 226.298 71.988 226.543 71.988C227.034 71.988 227.455 71.758 227.808 71.298C228.176 70.8227 228.429 70.171 228.567 69.343L229.786 62.604C229.464 62.328 229.111 62.19 228.728 62.19C228.36 62.19 228.061 62.2513 227.831 62.374C227.616 62.4967 227.417 62.696 227.233 62.972ZM242.989 60.81C243.541 60.81 244.031 60.8713 244.461 60.994C244.476 60.9327 244.499 60.8177 244.53 60.649L244.645 59.936C244.706 59.6293 244.783 59.223 244.875 58.717L245.243 56.9L249.82 56.44L247.267 69.78C247.251 69.872 247.244 69.9947 247.244 70.148V70.516C247.244 70.8533 247.328 71.1523 247.497 71.413C247.665 71.6583 247.888 71.781 248.164 71.781C247.857 72.5017 247.236 73.0153 246.301 73.322C245.979 73.414 245.588 73.46 245.128 73.46C244.683 73.46 244.254 73.3373 243.84 73.092C243.426 72.862 243.157 72.5477 243.035 72.149C242.789 72.5477 242.421 72.862 241.931 73.092C241.44 73.3373 240.834 73.46 240.114 73.46C239.408 73.46 238.757 73.368 238.159 73.184C237.576 73 237.101 72.7087 236.733 72.31C236.058 71.528 235.721 70.2477 235.721 68.469C235.721 66.169 236.395 64.3213 237.745 62.926C239.094 61.5153 240.842 60.81 242.989 60.81ZM242.828 62.19C242.26 62.19 241.823 62.4967 241.517 63.11C241.21 63.7233 240.896 64.789 240.574 66.307C240.267 67.825 240.114 69.2663 240.114 70.631C240.114 71.5663 240.39 72.034 240.942 72.034C241.432 72.034 241.846 71.7887 242.184 71.298C242.536 70.8073 242.782 70.1557 242.92 69.343L244.162 62.604C243.84 62.328 243.395 62.19 242.828 62.19ZM266.679 73.46C264.823 73.46 263.896 72.7393 263.896 71.298C263.896 70.6693 264.026 69.7493 264.287 68.538C264.563 67.3113 264.747 66.4527 264.839 65.962C265.053 64.8427 265.161 64.1067 265.161 63.754C265.161 62.972 264.869 62.581 264.287 62.581C263.903 62.581 263.528 62.8493 263.16 63.386C262.792 63.9073 262.523 64.697 262.355 65.755L260.929 73L256.444 73.46L257.686 67.204C257.824 66.514 257.954 65.778 258.077 64.996C258.199 64.214 258.261 63.7617 258.261 63.639C258.261 62.9337 258 62.581 257.479 62.581C257.126 62.581 256.758 62.8417 256.375 63.363C255.991 63.8843 255.692 64.6817 255.478 65.755L254.075 73L249.544 73.46L251.959 61.27L255.708 60.81L255.317 63.133C255.715 62.305 256.283 61.7147 257.019 61.362C257.755 60.994 258.698 60.81 259.848 60.81C260.507 60.81 261.051 60.971 261.481 61.293C261.91 61.615 262.194 62.0367 262.332 62.558C262.592 62.0213 263.052 61.5997 263.712 61.293C264.386 60.971 265.13 60.81 265.943 60.81C266.771 60.81 267.384 60.902 267.783 61.086C268.197 61.2547 268.526 61.4847 268.772 61.776C269.186 62.3127 269.393 63.0717 269.393 64.053C269.393 65.019 269.186 66.5063 268.772 68.515C268.557 69.4963 268.45 70.171 268.45 70.539C268.45 70.8917 268.549 71.1753 268.749 71.39C268.963 71.6047 269.224 71.7273 269.531 71.758C269.377 72.2793 269.032 72.6933 268.496 73C267.974 73.3067 267.369 73.46 266.679 73.46ZM276.819 71.735C276.344 72.885 275.347 73.46 273.829 73.46C273.047 73.46 272.411 73.1917 271.92 72.655C271.506 72.1797 271.299 71.7043 271.299 71.229C271.299 69.987 271.583 68.1547 272.15 65.732L273.001 61.27L277.67 60.81L276.267 68.078C276.007 69.2127 275.876 69.9793 275.876 70.378C275.876 71.252 276.191 71.7043 276.819 71.735ZM273.415 58.073C273.415 57.475 273.661 57.015 274.151 56.693C274.657 56.371 275.271 56.21 275.991 56.21C276.712 56.21 277.287 56.371 277.716 56.693C278.161 57.015 278.383 57.475 278.383 58.073C278.383 58.671 278.138 59.1233 277.647 59.43C277.172 59.7367 276.574 59.89 275.853 59.89C275.133 59.89 274.542 59.7367 274.082 59.43C273.638 59.1233 273.415 58.671 273.415 58.073ZM288.508 73.46C286.652 73.46 285.725 72.7393 285.725 71.298C285.74 70.8993 285.809 70.3627 285.932 69.688L286.346 67.572C286.76 65.5787 286.967 64.3597 286.967 63.915C286.967 63.0257 286.706 62.581 286.185 62.581C285.311 62.581 284.644 63.7233 284.184 66.008L282.827 73L278.204 73.46L280.596 61.247L284.368 60.81L284 63.064C284.72 61.5613 286.185 60.81 288.393 60.81C289.466 60.81 290.225 61.04 290.67 61.5C291.13 61.9447 291.36 62.673 291.36 63.685C291.36 64.6357 291.114 66.2227 290.624 68.446C290.394 69.4427 290.279 70.1327 290.279 70.516C290.279 70.884 290.378 71.1753 290.578 71.39C290.792 71.6047 291.053 71.7273 291.36 71.758C291.206 72.2793 290.861 72.6933 290.325 73C289.803 73.3067 289.198 73.46 288.508 73.46Z" fill="#ACACAC"/>
<path d="M275.159 46.5275C271.746 46.5275 269.879 44.1009 269.559 39.2475H262.679C262.146 40.4742 261.693 41.6209 261.319 42.6875L260.279 45.7275H254.679L267.279 19.3275H275.879L277.559 38.7675C277.826 41.5675 278.493 43.3809 279.559 44.2075C278.786 45.7542 277.319 46.5275 275.159 46.5275ZM263.919 36.3275H269.439L268.959 26.0475V24.9675L266.119 31.2475L263.919 36.3275ZM281.456 45.7275L286.536 19.3275H295.336L290.176 45.7275H281.456Z" fill="#0FB666"/>
</svg>
