<svg width="41" height="36" viewBox="0 0 41 36" fill="none" xmlns="http://www.w3.org/2000/svg">
<path d="M21.4337 9.30942L21.5262 9.33701L21.5325 9.32975C21.8056 9.36157 22.0691 9.19319 22.1495 8.92179C22.8229 6.6591 24.945 5.07798 27.3088 5.07798C27.6266 5.07798 27.8843 4.82023 27.8843 4.50244C27.8843 4.18463 27.6266 3.9269 27.3088 3.9269C24.341 3.9269 21.8472 5.90291 21.0464 8.59372C20.9556 8.89847 21.1292 9.21863 21.4337 9.30942Z" fill="#020817"  stroke-width="0.3"/>
<path d="M33.2661 25.3536H30.713C30.478 25.3536 30.2874 25.163 30.2874 24.928C30.2874 24.6931 30.478 24.5025 30.713 24.5025H33.2661C36.7855 24.5025 39.6491 21.639 39.6491 18.1196C39.6491 14.6001 36.7855 11.7366 33.2661 11.7366H33.2047C33.0813 11.7366 32.964 11.6831 32.8832 11.5898C32.8023 11.4965 32.7658 11.3728 32.7835 11.2506C32.8215 10.9855 32.8406 10.7193 32.8406 10.46C32.8406 7.40989 30.3588 4.9281 27.3087 4.9281C26.1221 4.9281 24.9904 5.29891 24.036 6.00073C23.8263 6.15483 23.5284 6.08644 23.4071 5.85574C20.7041 0.708668 13.6441 0.0174682 9.98388 4.49497C8.44197 6.38128 7.83613 8.83506 8.32159 11.2266C8.37509 11.4907 8.17296 11.7369 7.90457 11.7369H7.73405C4.21464 11.7369 1.3511 14.6005 1.3511 18.1199C1.3511 21.6393 4.21464 24.5028 7.73405 24.5028H10.2872C10.5222 24.5028 10.7127 24.6934 10.7127 24.9284C10.7127 25.1633 10.5222 25.3539 10.2872 25.3539H7.73405C3.74528 25.3539 0.5 22.1086 0.5 18.1199C0.5 14.243 3.56562 11.0685 7.40001 10.8934C7.03983 8.41225 7.72858 5.90952 9.32491 3.95638C13.2437 -0.83782 20.7539 -0.300454 23.9286 5.04543C24.9414 4.41047 26.1003 4.07737 27.3085 4.07737C31.004 4.07737 33.9322 7.22267 33.676 10.8974C37.4751 11.1105 40.5 14.2682 40.5 18.1195C40.5 22.1086 37.2547 25.3536 33.2659 25.3536L33.2661 25.3536Z" fill="#020817"/>
<path d="M9.6542 24.6878C9.6542 30.6367 14.4938 35.4762 20.4426 35.4762C26.3915 35.4762 31.231 30.6366 31.231 24.6878C31.231 18.7389 26.3915 13.8994 20.4426 13.8994C14.4937 13.8994 9.6542 18.739 9.6542 24.6878ZM10.8055 24.6878C10.8055 19.3741 15.1288 15.0507 20.4426 15.0507C25.7563 15.0507 30.0797 19.3741 30.0797 24.6878C30.0797 30.0015 25.7563 34.325 20.4426 34.325C15.1289 34.325 10.8055 30.0016 10.8055 24.6878Z" fill="#020817"  stroke-width="0.3"/>
<path d="M20.1771 28.9704C20.1771 29.2253 20.3838 29.4319 20.6387 29.4319C20.8935 29.4319 21.1002 29.2255 21.1002 28.9704V20.8704C21.1002 20.6155 20.8935 20.4088 20.6387 20.4088C20.3838 20.4088 20.1771 20.6155 20.1771 20.8704V28.9704Z" fill="#020817" stroke="#020817" stroke-width="0.3"/>
<path d="M20.6379 21.5241L18.472 23.6899L20.6379 21.5241ZM20.6379 21.5241L22.8038 23.69C22.8938 23.7801 23.0123 23.8252 23.1301 23.8252L20.6379 21.5241ZM17.8192 23.69C17.9994 23.8703 18.2918 23.8704 18.4719 23.69L23.1301 23.8252C23.2477 23.8252 23.3663 23.7805 23.4566 23.6899C23.6368 23.5096 23.6367 23.2176 23.4565 23.0373L20.9642 20.545C20.784 20.3648 20.4916 20.3647 20.3115 20.545C20.3114 20.5451 20.3114 20.5451 20.3114 20.5451L17.8192 23.0373C17.6389 23.2176 17.6389 23.5097 17.8192 23.69Z" fill="#020817" stroke="#020817" stroke-width="0.3"/>
</svg>
